# xmcd
#
# Track frame offsets: 
#        150
#        22454
#        34010
#        51675
#        64088
#        77664
#        100240
#        133951
#        149310
#        161618
#        172373
#        185653
#        204945
#        215661
#        228847
#        276079
#
# Disc length: 3841 seconds
#
# Revision: 0
# Processed by: cddbd v1.5.2PL0 Copyright (c) Steve Scherf et al.
# Submitted via: ExactAudioCopy v0.99pb1
#
DISCID=fb0eff10
DTITLE=The Chambers Brothers - Time Has Come: Best Of The Chambers Bro
DTITLE=thers
DYEAR=1900
DGENRE=
TTITLE0=Time Has Come Today [Single edit - version two]
TTITLE1=All Strung Out Over You
TTITLE2=People Get Ready
TTITLE3=I Can't Stand It
TTITLE4=Uptown
TTITLE5=I Can't Turn You Loose
TTITLE6=A New Time - A New Day
TTITLE7=You Got The Power - To Turn Me On
TTITLE8=Are You Ready? [mono single version]
TTITLE9=Wake Up (From The Motion Picture "The April Fools")
TTITLE10=Love, Peace, And Happiness [Single version]
TTITLE11=Let's Do It (Do It Together)
TTITLE12=New Generation [Single version]
TTITLE13=Funky
TTITLE14=Wade In The Water [Live]
TTITLE15=Time Has Come Today [Single version one - rejected version- m
TTITLE15=ono]
EXTD=
EXTT0=
EXTT1=
EXTT2=
EXTT3=
EXTT4=
EXTT5=
EXTT6=
EXTT7=
EXTT8=
EXTT9=
EXTT10=
EXTT11=
EXTT12=
EXTT13=
EXTT14=
EXTT15=
PLAYORDER=
